<svg width="25" height="23" viewBox="0 0 25 23" fill="none" xmlns="http://www.w3.org/2000/svg">
<path fill-rule="evenodd" clip-rule="evenodd" d="M18.4984 0.162133C18.949 0.160384 19.3954 0.253935 19.8121 0.437413C20.2293 0.621151 20.6084 0.891433 20.9275 1.23266C21.2465 1.5739 21.4993 1.97932 21.6711 2.42555C21.8426 2.87108 21.9301 3.34848 21.9285 3.83029L21.9285 3.83254L21.0714 3.8287H21.9285V3.83029V16.6617C21.9285 17.1679 21.5447 17.5783 21.0714 17.5783C20.598 17.5783 20.2143 17.1679 20.2143 16.6617V3.8287L20.2143 3.82485C20.2152 3.58432 20.1716 3.34598 20.086 3.12356C20.0003 2.90115 19.8744 2.69907 19.7153 2.52899C19.5563 2.35891 19.3674 2.22419 19.1594 2.13261C18.9514 2.04103 18.7286 1.9944 18.5037 1.99541L18.5001 1.99541H3.92939C3.45603 1.99541 3.07229 1.58502 3.07229 1.07877C3.07229 0.572527 3.45603 0.162133 3.92939 0.162133H18.4984ZM18.4984 0.162133L18.4965 0.162142L18.5001 1.07877V0.162133H18.4984Z" fill="#E1E1E6"/>
<path fill-rule="evenodd" clip-rule="evenodd" d="M9.92789 8.41469C9.92789 7.90844 10.3116 7.49805 10.785 7.49805H17.6418C18.1151 7.49805 18.4989 7.90844 18.4989 8.41469C18.4989 8.92093 18.1151 9.33133 17.6418 9.33133H10.785C10.3116 9.33133 9.92789 8.92093 9.92789 8.41469Z" fill="#E1E1E6"/>
<path fill-rule="evenodd" clip-rule="evenodd" d="M9.92789 12.0827C9.92789 11.5764 10.3116 11.166 10.785 11.166H17.6418C18.1151 11.166 18.4989 11.5764 18.4989 12.0827C18.4989 12.5889 18.1151 12.9993 17.6418 12.9993H10.785C10.3116 12.9993 9.92789 12.5889 9.92789 12.0827Z" fill="#E1E1E6"/>
<path fill-rule="evenodd" clip-rule="evenodd" d="M4.13188 2.00857C3.85607 1.97331 3.57638 2.01025 3.31688 2.11623C3.05738 2.22221 2.82585 2.39404 2.64222 2.61693C2.45858 2.83983 2.32835 3.10711 2.26272 3.39578C2.1971 3.68444 2.19805 3.98583 2.26549 4.27401C2.33294 4.5622 2.46485 4.82853 2.64989 5.0501C2.96521 5.42767 2.93463 6.00714 2.58158 6.34436C2.22853 6.68159 1.68671 6.64888 1.37138 6.27131C1.00131 5.82818 0.737479 5.2955 0.602591 4.71914C0.467703 4.14277 0.465802 3.53998 0.597051 2.96266C0.728301 2.38534 0.988769 1.85077 1.35604 1.40498C1.7233 0.959186 2.18636 0.615522 2.70536 0.403569C3.22436 0.191616 3.78374 0.117724 4.33537 0.188252C4.88699 0.25878 5.41432 0.471615 5.87197 0.808439C6.32963 1.14526 6.70389 1.59598 6.96254 2.1218C7.2212 2.64762 7.35649 3.23279 7.35679 3.82693V18.4932C7.35694 18.7903 7.42459 19.0828 7.55392 19.3458C7.68324 19.6087 7.87037 19.834 8.0992 20.0024C8.32803 20.1708 8.59169 20.2773 8.8675 20.3125C9.14331 20.3478 9.42301 20.3108 9.68251 20.2049C9.94201 20.0989 10.1735 19.9271 10.3572 19.7042C10.5408 19.4813 10.671 19.214 10.7367 18.9253C10.8023 18.6367 10.8013 18.3353 10.7339 18.0471C10.6664 17.7589 10.5345 17.4926 10.3495 17.271C10.1244 17.0015 10.0684 16.6157 10.2065 16.2859C10.3445 15.9561 10.6509 15.7438 10.9887 15.7438H22.9881C23.232 15.7438 23.4644 15.8549 23.627 16.0493C24.0683 16.577 24.3573 17.23 24.4592 17.9295C24.561 18.629 24.4713 19.3451 24.201 19.9913C23.9306 20.6375 23.491 21.1862 22.9354 21.5711C22.3799 21.9559 21.7322 22.1605 21.0704 22.1602H9.07099C9.05197 22.1602 9.03309 22.1596 9.01438 22.1583C8.89755 22.1562 8.78061 22.1478 8.66402 22.1328C8.1124 22.0623 7.58506 21.8495 7.12741 21.5127C6.66976 21.1758 6.2955 20.7251 6.03684 20.1993C5.77819 19.6735 5.64289 19.0883 5.64259 18.4942V3.82791C5.64245 3.53084 5.5748 3.23826 5.44547 2.97535C5.31614 2.71244 5.12901 2.48708 4.90018 2.31866C4.67136 2.15025 4.40769 2.04384 4.13188 2.00857ZM12.0393 20.327H21.0704C21.4014 20.3271 21.7257 20.2248 22.0035 20.0324C22.2813 19.8399 22.5011 19.5656 22.6363 19.2425C22.7715 18.9194 22.8163 18.5614 22.7654 18.2116C22.7327 17.987 22.6614 17.772 22.5561 17.577H12.3909C12.3929 17.5853 12.3948 17.5936 12.3968 17.602C12.5317 18.1783 12.5336 18.7811 12.4023 19.3584C12.3248 19.6993 12.2023 20.0253 12.0393 20.327Z" fill="#E1E1E6"/>
</svg>
