<svg width="23" height="27" viewBox="0 0 23 27" fill="none" xmlns="http://www.w3.org/2000/svg">
<path fill-rule="evenodd" clip-rule="evenodd" d="M8.12038 1.16211C8.12038 0.609825 8.5681 0.162109 9.12038 0.162109H14.5749C15.1272 0.162109 15.5749 0.609825 15.5749 1.16211C15.5749 1.71439 15.1272 2.16211 14.5749 2.16211H9.12038C8.5681 2.16211 8.12038 1.71439 8.12038 1.16211ZM11.8477 5.85442C6.89143 5.85442 2.84766 9.93828 2.84766 15.0083C2.84766 20.0782 6.89143 24.1621 11.8477 24.1621C16.8039 24.1621 20.8477 20.0782 20.8477 15.0083C20.8477 9.93828 16.8039 5.85442 11.8477 5.85442ZM0.847656 15.0083C0.847656 8.86261 5.75819 3.85442 11.8477 3.85442C17.9371 3.85442 22.8477 8.86261 22.8477 15.0083C22.8477 21.1539 17.9371 26.1621 11.8477 26.1621C5.75819 26.1621 0.847656 21.1539 0.847656 15.0083ZM17.0493 9.72607C17.4428 10.1136 17.4477 10.7467 17.0601 11.1402L12.5601 15.7095C12.1726 16.103 11.5395 16.1078 11.146 15.7203C10.7525 15.3327 10.7476 14.6996 11.1352 14.3061L15.6352 9.73686C16.0227 9.34337 16.6559 9.33854 17.0493 9.72607Z" fill="#E1E1E6"/>
</svg>
